<svg width="24" height="24" viewBox="0 0 24 24" fill="none" xmlns="http://www.w3.org/2000/svg">
  <circle cx="12" cy="12" r="12" fill="#F7931A"/>
  <path d="M15.52 10.94c.17-1.17-.72-1.79-1.95-2.21L14.16 6.5l-1.07-.27-.58 2.32c-.28-.07-.57-.14-.86-.2L12.22 6l-1.07-.27-.59 2.42c-.23-.05-.46-.1-.68-.16v-.01l-1.48-.37-.28 1.14s.79.18.77.19c.43.11.51.39.5.62l-.5 2c.03.01.07.02.11.04l-.11-.03-.7 2.8c-.05.13-.19.33-.5.25.01.01-.77-.19-.77-.19l-.53 1.22 1.4.35c.26.07.51.14.76.21l-.6 2.4 1.07.27.59-2.37c.29.08.57.15.85.22l-.58 2.34 1.07.27.6-2.4c2.48.47 4.35.28 5.13-1.96.63-1.81-.03-2.85-1.34-3.53.95-.22 1.67-.85 1.86-2.15zm-3.32 4.66c-.45 1.8-3.48.83-4.46.58l.8-3.18c.98.24 4.13.72 3.66 2.6zm.45-4.69c-.41 1.64-2.94.81-3.76.6l.72-2.88c.82.2 3.47.58 3.04 2.28z" fill="white"/>
</svg>
